<?xml version="1.0" encoding="UTF-8"?>
<svg version="1.1" xmlns="http://www.w3.org/2000/svg" width="512" height="512">
<path d="M0 0 C2.14159993 2.00383998 4.26232677 4.0282191 6.375 6.0625 C6.89868164 6.56426758 7.42236328 7.06603516 7.96191406 7.58300781 C23.95871864 22.98550386 37.44070321 40.95043901 48.36621094 60.27978516 C49.34618841 62.01158464 50.34856727 63.73064787 51.3515625 65.44921875 C82.50530271 120.1000088 88.01580851 188.59922763 71.62109375 248.68359375 C64.01654386 275.14153996 52.46211047 300.64391634 36.375 323.0625 C35.69179688 324.01898438 35.00859375 324.97546875 34.3046875 325.9609375 C20.13877304 345.30578842 3.4645886 363.74391181 -15.98632812 377.86816406 C-17.62820262 379.06483421 -19.24416788 380.29108707 -20.859375 381.5234375 C-55.54627579 407.58484859 -97.79451352 422.22104442 -140.625 427.0625 C-141.72972656 427.19398438 -142.83445312 427.32546875 -143.97265625 427.4609375 C-200.59013671 432.98095536 -260.40207457 417.24989538 -306.625 384.0625 C-307.59308594 383.36769531 -308.56117188 382.67289062 -309.55859375 381.95703125 C-328.8138192 367.80982399 -347.32658788 351.27923438 -361.35205078 331.82275391 C-362.72067064 329.93020516 -364.12343433 328.06571194 -365.52734375 326.19921875 C-402.71662108 275.99429554 -418.52394256 209.7654747 -409.625 148.0625 C-401.83187563 96.62787915 -379.73543643 49.59573616 -343.625 12.0625 C-343.02526367 11.43553223 -342.42552734 10.80856445 -341.80761719 10.16259766 C-332.97628263 0.97792083 -323.95577845 -7.46902613 -313.625 -14.9375 C-313.01221191 -15.38399902 -312.39942383 -15.83049805 -311.76806641 -16.29052734 C-275.72240907 -42.35686914 -234.83639837 -57.93994945 -190.625 -62.9375 C-189.52027344 -63.06898437 -188.41554687 -63.20046875 -187.27734375 -63.3359375 C-119.46281755 -69.94763044 -49.97381206 -46.02517179 0 0 Z M-254.625 84.0625 C-260.47834451 92.26050807 -261.42912191 98.98863938 -260.625 109.0625 C-258.32858658 117.124908 -252.39243006 121.80470253 -245.4921875 126.046875 C-239.94470647 129.0643333 -233.15116015 129.03580919 -227.1484375 127.37890625 C-219.75095994 124.3156896 -213.6334656 119.78164924 -210.34765625 112.328125 C-207.84662233 104.48704567 -208.13008563 97.48919304 -211.625 90.0625 C-214.98360144 83.71847506 -220.07017468 79.8004146 -226.4375 76.6875 C-237.02814408 74.61090312 -246.7738627 76.2113627 -254.625 84.0625 Z M-117.625 86.0625 C-121.61917083 92.23217022 -123.52396638 98.68084645 -122.625 106.0625 C-120.37741573 114.26939341 -116.39237397 121.00524152 -109 125.4375 C-102.06511982 128.77651638 -94.88945825 129.4044253 -87.484375 127.07421875 C-79.90392496 123.6934904 -75.51374967 119.37435618 -71.625 112.0625 C-69.43242201 105.48476602 -69.29311048 96.80880914 -72.375 90.5 C-73.09231751 89.33342827 -73.83966347 88.18440933 -74.625 87.0625 C-75.181875 86.175625 -75.73875 85.28875 -76.3125 84.375 C-81.59115074 79.09634926 -88.36068071 75.93862388 -95.8125 75.8125 C-105.10859415 75.94704873 -111.39745112 79.10311057 -117.625 86.0625 Z M-78.25317383 215.73364258 C-79.35733422 216.03949217 -79.35733422 216.03949217 -80.48380089 216.35152054 C-82.938424 217.03612144 -85.38478385 217.74655454 -87.83203125 218.45703125 C-89.5942086 218.95390688 -91.35686148 219.44909868 -93.11994934 219.94273376 C-97.90114386 221.28608151 -102.67579508 222.65146196 -107.44965363 224.02061462 C-112.45729141 225.45256659 -117.47072669 226.86389382 -122.48388672 228.27636719 C-128.75221449 230.04376056 -135.01997772 231.81305709 -141.28527832 233.59115601 C-156.19248874 237.82127157 -171.11547224 241.99133261 -186.05078125 246.12109375 C-188.11495543 246.69216123 -190.17912881 247.26323156 -192.24330139 247.83430481 C-199.22211897 249.76459729 -206.20126929 251.69368586 -213.18054581 253.62231827 C-218.77288668 255.1679478 -224.36451585 256.71610531 -229.95514488 258.26791573 C-231.63836545 258.734633 -233.3218463 259.20041294 -235.00562477 259.66511345 C-239.50084269 260.90584302 -243.99079028 262.16269564 -248.47327423 263.44871521 C-249.93842869 263.86665393 -251.40522227 264.27887909 -252.87340546 264.68605042 C-255.06818242 265.29710468 -257.25572348 265.92963121 -259.44287109 266.56738281 C-260.70666595 266.92761536 -261.97046082 267.2878479 -263.27255249 267.65899658 C-267.01848288 269.22723176 -269.01837015 270.97886895 -271.625 274.0625 C-272.46869794 276.82941 -272.25568481 279.24998668 -271.625 282.0625 C-269.83136089 284.8725346 -268.60619065 286.57190468 -265.625 288.0625 C-259.97202238 288.42736709 -255.31534791 287.41270383 -249.94921875 285.87890625 C-249.07315979 285.63651718 -248.19710083 285.39412811 -247.29449463 285.14439392 C-244.29807134 284.31305995 -241.30541324 283.46887648 -238.3125 282.625 C-236.12271461 282.01477247 -233.93268193 281.4054318 -231.74243164 280.796875 C-227.3707817 279.58090436 -223.00005544 278.3617251 -218.63043118 277.13850212 C-207.75343937 274.09371959 -196.86912309 271.07551144 -185.984375 268.05859375 C-169.42758885 263.46889568 -152.87366381 258.86902035 -136.32188416 254.26130104 C-125.78974614 251.32953485 -115.25592897 248.40420019 -104.71617126 245.49993896 C-99.96768833 244.19087735 -95.2206421 242.87666438 -90.47390747 241.5612793 C-88.39087695 240.98555189 -86.30713032 240.41240828 -84.22262573 239.84204102 C-81.44209899 239.0810348 -78.66416514 238.3112212 -75.88671875 237.5390625 C-75.10480164 237.32774689 -74.32288452 237.11643127 -73.51727295 236.89871216 C-68.57497654 235.51130179 -64.53098777 233.90276405 -60.8125 230.3125 C-59.07931891 227.02857794 -59.17567367 224.72130015 -59.625 221.0625 C-61.61003564 217.48943586 -62.98704362 216.31184296 -66.80058289 214.82133484 C-71.11471732 213.96533106 -74.14272137 214.5055176 -78.25317383 215.73364258 Z " fill="#C41212" transform="translate(421.625,73.9375)"/>
</svg>
