<?xml version="1.0" encoding="UTF-8"?>
<svg version="1.1" xmlns="http://www.w3.org/2000/svg" width="512" height="512">
<path d="M0 0 C1.02040375 0.00215515 2.0408075 0.0043103 3.09213257 0.00653076 C17.71960524 0.05616648 32.07013838 0.30330288 46.4375 3.3125 C47.41235352 3.51117676 48.38720703 3.70985352 49.39160156 3.91455078 C92.66131524 12.96579926 132.86269334 31.35020671 166.4375 60.3125 C167.18257813 60.94671875 167.92765625 61.5809375 168.6953125 62.234375 C181.63342901 73.54974469 194.08210026 85.74603085 204.22705078 99.65332031 C205.43588648 101.31028832 206.66751277 102.94828502 207.90234375 104.5859375 C231.97222985 136.92791561 248.27280456 175.43710681 254.4375 215.3125 C254.61861328 216.42890869 254.79972656 217.54531738 254.98632812 218.69555664 C256.76945458 230.9799336 256.83534772 243.22941761 256.8125 255.625 C256.81168427 257.28699936 256.81168427 257.28699936 256.81085205 258.98257446 C256.77301851 275.74359076 256.15452282 291.90272117 252.4375 308.3125 C252.11604004 309.77067139 252.11604004 309.77067139 251.78808594 311.25830078 C242.47209402 352.42088224 223.86224626 390.22701869 196.4375 422.3125 C195.78910156 423.07304687 195.14070313 423.83359375 194.47265625 424.6171875 C183.82490822 436.75684648 172.34722407 448.58027482 159.4375 458.3125 C158.90012207 458.72628906 158.36274414 459.14007813 157.80908203 459.56640625 C147.8111221 467.25326589 137.34938153 473.99863145 126.4375 480.3125 C125.76025879 480.70679199 125.08301758 481.10108398 124.38525391 481.50732422 C86.97571134 503.02446361 44.17068926 512.78826162 1.3125 512.625 C0.31926727 512.62317719 -0.67396545 512.62135437 -1.69729614 512.61947632 C-16.16824163 512.57475311 -30.33775533 512.21080215 -44.5625 509.3125 C-45.4788623 509.13025879 -46.39522461 508.94801758 -47.33935547 508.76025391 C-53.79223313 507.44863995 -60.18534326 505.95152372 -66.5625 504.3125 C-67.31724609 504.11930176 -68.07199219 503.92610352 -68.84960938 503.72705078 C-86.57315838 499.08840326 -103.42744685 491.93360055 -119.5625 483.3125 C-120.54379883 482.79284668 -120.54379883 482.79284668 -121.54492188 482.26269531 C-143.50932073 470.5519207 -162.69754994 455.55461624 -180.5625 438.3125 C-181.50351563 437.41273438 -182.44453125 436.51296875 -183.4140625 435.5859375 C-189.28754639 429.85792689 -194.49793947 423.76067758 -199.5625 417.3125 C-200.35398438 416.32636719 -201.14546875 415.34023438 -201.9609375 414.32421875 C-219.66886187 391.89604324 -233.51721125 366.42686823 -242.5625 339.3125 C-242.97121338 338.1066626 -242.97121338 338.1066626 -243.38818359 336.87646484 C-246.70983491 326.93550838 -249.22097453 316.89319737 -251.3125 306.625 C-251.51125732 305.65272461 -251.71001465 304.68044922 -251.91479492 303.67871094 C-254.94830984 288.01833643 -255.94223668 272.66963178 -255.875 256.75 C-255.87284485 255.82807861 -255.8706897 254.90615723 -255.86846924 253.95629883 C-255.8145996 239.56158316 -255.29481049 225.48388576 -252.5625 211.3125 C-252.36914062 210.29446289 -252.17578125 209.27642578 -251.9765625 208.22753906 C-244.17437388 168.53029233 -227.66598577 131.107085 -202.5625 99.3125 C-201.93214844 98.49007812 -201.30179688 97.66765625 -200.65234375 96.8203125 C-195.03739054 89.60273405 -188.86671024 82.92625587 -182.5625 76.3125 C-182.08876953 75.81540527 -181.61503906 75.31831055 -181.12695312 74.80615234 C-174.67633411 68.08638058 -167.8959122 62.04734823 -160.5625 56.3125 C-159.55445313 55.51070312 -158.54640625 54.70890625 -157.5078125 53.8828125 C-112.46148784 18.33274007 -57.28554281 -0.21719527 0 0 Z M-192.8125 127.4375 C-193.74835938 128.21480469 -193.74835938 128.21480469 -194.703125 129.0078125 C-201.26711856 137.14385494 -201.15674419 146.01022715 -201.09375 156.01171875 C-201.09645169 157.5347366 -201.1003397 159.05775276 -201.10534668 160.58076477 C-201.11121898 163.76389074 -201.10275895 166.94656551 -201.08398438 170.12963867 C-201.06129317 174.16958549 -201.07426885 178.20846323 -201.09827423 182.24837017 C-201.11287801 185.39296706 -201.1080588 188.53731969 -201.09776306 191.68192482 C-201.09513067 193.16916855 -201.09823974 194.65643588 -201.10768127 196.14365196 C-201.19777467 214.33196882 -196.56892124 229.66459014 -183.83203125 243.03515625 C-182.70861328 244.16244141 -182.70861328 244.16244141 -181.5625 245.3125 C-180.94761719 245.95058594 -180.33273438 246.58867187 -179.69921875 247.24609375 C-166.06303914 260.35668186 -148.64256398 262.78602621 -130.59375 262.7109375 C-128.86462278 262.71296335 -127.1354964 262.71587902 -125.40637207 262.71963501 C-121.79898875 262.72403433 -118.19182971 262.71770503 -114.58447266 262.70361328 C-109.98845815 262.68652281 -105.39296945 262.69637692 -100.79697418 262.71433067 C-97.23134486 262.72523357 -93.66583772 262.72169253 -90.10020447 262.7139473 C-88.40673254 262.71196322 -86.71324908 262.71434064 -85.01979065 262.72138596 C-65.09390522 262.78611587 -48.0643006 257.69957117 -33.5625 243.3125 C-20.70733944 228.27812558 -16.37583917 212.40402919 -16.46484375 193.03515625 C-16.4662587 191.8686705 -16.46767365 190.70218475 -16.46913147 189.50035095 C-16.47470794 185.79187403 -16.48725616 182.08345853 -16.5 178.375 C-16.50501804 175.8535165 -16.50958041 173.33203205 -16.51367188 170.81054688 C-16.52381675 164.64448882 -16.54339688 158.47856278 -16.5625 152.3125 C-5.0125 152.3125 6.5375 152.3125 18.4375 152.3125 C18.39109375 156.33695313 18.3446875 160.36140625 18.296875 164.5078125 C18.27107471 167.75653088 18.24941082 171.00521954 18.23049927 174.25398254 C18.20954779 177.66156238 18.18164764 181.06873143 18.13574219 184.47607422 C18.08670436 188.40342734 18.06441216 192.3302069 18.046875 196.2578125 C18.02622986 197.4542337 18.00558472 198.65065491 17.98431396 199.8833313 C17.97980579 217.19455558 24.27141422 231.56904955 36.12890625 244.06640625 C51.2842203 258.81142415 67.89541845 262.79626897 88.40625 262.7109375 C90.13537722 262.71296335 91.8645036 262.71587902 93.59362793 262.71963501 C97.20101125 262.72403433 100.80817029 262.71770503 104.41552734 262.70361328 C109.01154185 262.68652281 113.60703055 262.69637692 118.20302582 262.71433067 C121.76865514 262.72523357 125.33416228 262.72169253 128.89979553 262.7139473 C130.59326746 262.71196322 132.28675092 262.71434064 133.98020935 262.72138596 C153.90609478 262.78611587 170.9356994 257.69957117 185.4375 243.3125 C198.79336158 227.69254544 202.56069356 211.48167725 202.67578125 191.453125 C202.67985678 190.78925529 202.6839323 190.12538559 202.68813133 189.44139862 C202.70889556 185.92740706 202.72323869 182.41345344 202.73266602 178.89941406 C202.74371255 175.30087884 202.77811915 171.7029649 202.81783772 168.10464859 C202.8441775 165.30937679 202.85237303 162.51424938 202.85594749 159.71886444 C202.863087 157.7565168 202.88944326 155.79426863 202.91633606 153.83209229 C202.89386952 144.47966917 201.78608914 135.57809515 195.3125 128.375 C186.7454553 121.06487767 177.38470205 120.73276722 166.54586792 120.81129456 C165.04975581 120.80739639 163.55364742 120.80175182 162.05754769 120.79452366 C157.96808309 120.77982529 153.87900576 120.78991651 149.78955388 120.80426037 C145.37097523 120.81539821 140.95244966 120.80341837 136.53387451 120.79441833 C127.88704026 120.78050367 119.24035229 120.78802861 110.59352504 120.80309392 C100.52101079 120.81997382 90.44853279 120.81674132 80.37600876 120.81299984 C62.40380053 120.80712466 44.43166242 120.82128021 26.45947266 120.84594727 C9.0245501 120.86987417 -8.41027881 120.87694829 -25.84521484 120.86645508 C-44.83901304 120.85504412 -63.83276795 120.85311747 -82.82656562 120.86755317 C-84.85203735 120.86907899 -86.87750907 120.87059935 -88.9029808 120.87211418 C-89.89951315 120.872872 -90.89604549 120.87362981 -91.92277578 120.87441059 C-98.94231977 120.87915147 -105.9618444 120.87730342 -112.98138809 120.87304878 C-121.53532344 120.86812069 -130.08917028 120.87411311 -138.64308538 120.89394308 C-143.00661263 120.90380983 -147.37000515 120.90892679 -151.73353958 120.90105057 C-155.72934155 120.89398567 -159.72487183 120.9008172 -163.72063802 120.9186542 C-165.16461208 120.92269339 -166.60861097 120.92170768 -168.05257572 120.91513533 C-177.36908733 120.87636565 -185.44947883 121.03352781 -192.8125 127.4375 Z M-126.30078125 328.79296875 C-129.52011496 332.15060319 -131.6219454 335.33981237 -131.84375 340.1640625 C-129.64397925 356.96786686 -108.2292812 375.88448373 -95.75 385.91015625 C-61.61934419 411.63362846 -21.31007605 423.88377833 21.52392578 418.48974609 C61.16264391 412.65063696 98.24624679 391.46456237 122.75683594 359.59716797 C130.82784274 349.05105098 130.82784274 349.05105098 132.4375 336.3125 C130.23626376 331.37336249 127.57882323 327.39351179 122.4375 325.3125 C117.66232084 324.05113192 113.98157868 324.07583836 109.4765625 325.98046875 C105.16167902 328.79919531 102.41142314 333.18505515 99.4375 337.3125 C97.13801978 340.3397278 94.80264515 343.33631513 92.4375 346.3125 C91.86902344 347.03050781 91.30054688 347.74851562 90.71484375 348.48828125 C81.36037717 359.66994724 69.2708431 367.65382826 56.4375 374.3125 C55.40238281 374.85648437 54.36726562 375.40046875 53.30078125 375.9609375 C25.06187968 389.92094656 -8.82941752 391.13215867 -38.59741211 381.48583984 C-64.08261967 372.68696234 -85.83906983 356.75060601 -100.88818359 334.23510742 C-104.39259361 329.08318611 -107.95332623 326.02409285 -114 324.375 C-119.04590834 324.28647529 -122.43059823 325.4967904 -126.30078125 328.79296875 Z " fill="#568D11" transform="translate(255.5625,-0.31250000000000006)"/>
</svg>
