<?xml version="1.0" encoding="UTF-8"?>
<svg version="1.1" xmlns="http://www.w3.org/2000/svg" width="512" height="512">
<path d="M0 0 C40.41848381 37.77756773 65.00142603 91.44215237 67.10498047 146.76074219 C68.74242615 206.2579922 47.77958155 261.21739991 7.32275391 304.80712891 C-0.81026972 313.40011788 -9.40302938 321.0815979 -19 328 C-19.65919434 328.47646973 -20.31838867 328.95293945 -20.99755859 329.44384766 C-51.40172675 351.14068527 -85.9484234 364.47887908 -123 369 C-124.07507813 369.13148438 -125.15015625 369.26296875 -126.2578125 369.3984375 C-181.69554326 374.75404073 -237.64240867 358.08589693 -281.0625 323.3125 C-282.72405444 321.89320072 -284.36973583 320.4551331 -286 319 C-286.72340576 318.35683838 -286.72340576 318.35683838 -287.46142578 317.70068359 C-329.84179388 279.88167198 -357.38643126 227.84985049 -360.87109375 170.59863281 C-363.62892436 115.00327487 -347.30522633 59.1096873 -310 17 C-309.29875 16.19046875 -308.5975 15.3809375 -307.875 14.546875 C-272.56015185 -25.56070255 -224.03650296 -50.5283606 -171 -57 C-169.38738281 -57.19722656 -169.38738281 -57.19722656 -167.7421875 -57.3984375 C-105.61008548 -63.40075545 -45.79328486 -41.70778057 0 0 Z M-231.43359375 80.84375 C-235.10187938 85.89336014 -234.54305958 92.02634465 -234 98 C-232.27051609 103.68854347 -227.78859406 107.72744555 -223 111 C-217.94561691 113.31659225 -213.16700865 113.92463365 -207.765625 112.34765625 C-201.05739917 109.72514514 -197.26021795 105.80127565 -193.625 99.6875 C-192.07278245 93.01296451 -192.21836793 86.84187719 -195.66796875 80.8203125 C-199.35552233 75.78101641 -203.81884005 72.28774166 -210 71 C-219.9212264 70.08136793 -225.16497705 73.483339 -231.43359375 80.84375 Z M-96.4375 78.4375 C-100.9313105 84.33796032 -101.89606847 89.65223855 -101 97 C-99.00847802 103.51770829 -95.17214951 107.68913271 -89.1875 111.00390625 C-83.7526097 113.4474154 -78.74855514 113.40326683 -73 112 C-67.2713401 109.13567005 -62.0532917 104.15987511 -60 98 C-59.2807344 91.06422454 -59.27521341 85.42376014 -63.51171875 79.68359375 C-68.33412489 74.22832591 -72.97022207 71.45620128 -80.3125 70.625 C-86.82983304 71.28777963 -92.02772029 73.51145339 -96.4375 78.4375 Z M-251 191 C-253.80340062 194.56796443 -254.04661365 196.41266799 -253.6875 200.9375 C-250.40541832 212.82503973 -242.69684871 223.6045364 -235 233 C-234.31421875 233.85078125 -233.6284375 234.7015625 -232.921875 235.578125 C-214.36369543 257.43553649 -186.30851889 270.44166009 -158 273 C-126.42648397 274.65552817 -97.68212598 267.21982072 -73 247 C-72.14921875 246.31421875 -71.2984375 245.6284375 -70.421875 244.921875 C-60.71137172 236.67710806 -53.24022963 226.63569923 -46.9375 215.625 C-46.5674585 214.98361084 -46.19741699 214.34222168 -45.81616211 213.68139648 C-42.87973128 208.3323306 -40.9410623 203.00582247 -41.0625 196.8125 C-42.2962659 193.1112023 -43.96240645 191.4162676 -47 189 C-50.40216015 187.56751151 -51.85327004 187.95556179 -55.41796875 189.03515625 C-59.72941033 190.96348508 -61.16795174 194.25013863 -62.9375 198.4375 C-63.60849479 199.8895478 -64.28566506 201.33875665 -64.96875 202.78515625 C-65.30519531 203.50074707 -65.64164063 204.21633789 -65.98828125 204.95361328 C-76.09914119 225.40468182 -94.37022396 239.65250654 -115.55859375 247.28125 C-125.35982828 250.39628481 -134.43676701 251.23941144 -144.67285156 251.29516602 C-146.12314694 251.30658187 -147.57340388 251.3268649 -149.0234375 251.35668945 C-173.48310414 251.85786623 -195.65912255 243.3094067 -213.62890625 226.4609375 C-221.1152505 218.69092617 -226.42050564 209.89184112 -231.2734375 200.34765625 C-234.82948284 192.82976594 -234.82948284 192.82976594 -241.25 188.125 C-245.22699604 187.94422745 -247.56744402 189.0294586 -251 191 Z " fill="#A17A16" transform="translate(403,100)"/>
</svg>
